<svg width="145" height="240" viewBox="0 0 145 240" fill="none" xmlns="http://www.w3.org/2000/svg">
<path d="M33.0836 94.2043C52.7095 67.8495 38.5041 49.3451 30.2799 40.934C45.9806 43.6255 55.5132 49.9058 58.3169 52.7095C78.9521 67.513 66.9149 100.746 58.3169 115.512C50.6908 134.353 61.4944 157.007 67.8495 165.979C56.6347 164.633 45.233 156.073 40.934 151.96C19.4016 136.26 21.8688 109.264 33.0836 94.2043Z" fill="url(#paint0_linear_8_28)"/>
<path d="M82.4287 65.0458C52.3731 41.719 39.9995 11.9624 37.5696 0C40.7097 13.0092 66.1673 31.2145 78.5036 38.691C86.5782 42.7284 102.615 53.0834 109.344 57.7562C134.739 75.3915 136.634 103.924 134.017 121.12C123.251 160.147 85.7932 166.913 68.4103 165.418C81.4194 162.727 94.0174 145.979 98.6902 137.942C116.185 102.952 95.1388 74.7653 82.4287 65.0458Z" fill="url(#paint1_linear_8_28)"/>
<circle cx="90.2791" cy="21.3081" r="17.3829" fill="url(#paint2_linear_8_28)"/>
<circle cx="22.4296" cy="73.4569" r="14.5792" fill="#137042"/>
<path d="M77.4247 203.548C41.5373 187.848 17.2386 156.633 9.57519 142.989C-0.74242 162.278 -0.705038 180.932 0.603354 187.848C36.9393 211.175 66.9575 220.371 77.4247 222.053C106.583 217.118 133.686 199.436 143.592 191.212C146.732 176.409 142.284 163.362 139.667 158.689C127.555 176.633 93.1254 196.072 77.4247 203.548Z" fill="url(#paint3_linear_8_28)"/>
<path d="M77.4247 221.492C41.5373 205.791 17.2386 174.577 9.57519 160.932C-0.74242 180.222 -0.705038 198.876 0.603354 205.791C36.9393 229.118 66.9575 238.314 77.4247 239.997C106.583 235.062 133.686 217.38 143.592 209.156C146.732 194.352 142.284 181.306 139.667 176.633C127.555 194.577 93.1254 214.016 77.4247 221.492Z" fill="url(#paint4_linear_8_28)"/>
<defs>
<linearGradient id="paint0_linear_8_28" x1="47.1776" y1="40.934" x2="47.1021" y2="270.276" gradientUnits="userSpaceOnUse">
<stop stop-color="#15804B"/>
<stop offset="1" stop-color="#041A0F"/>
</linearGradient>
<linearGradient id="paint1_linear_8_28" x1="86.2317" y1="0" x2="86.2317" y2="165.606" gradientUnits="userSpaceOnUse">
<stop stop-color="#FFFF00"/>
<stop offset="1" stop-color="#999900"/>
</linearGradient>
<linearGradient id="paint2_linear_8_28" x1="90.2791" y1="3.92517" x2="89.7184" y2="74.0176" gradientUnits="userSpaceOnUse">
<stop stop-color="#F1F101"/>
<stop offset="1" stop-color="#8B8B01"/>
</linearGradient>
<linearGradient id="paint3_linear_8_28" x1="72.336" y1="142.989" x2="72.336" y2="222.053" gradientUnits="userSpaceOnUse">
<stop stop-color="#8B8B03"/>
<stop offset="1" stop-color="#FFFF00"/>
</linearGradient>
<linearGradient id="paint4_linear_8_28" x1="72.336" y1="160.932" x2="72.336" y2="239.997" gradientUnits="userSpaceOnUse">
<stop stop-color="#15804B"/>
<stop offset="1" stop-color="#1FBF70"/>
</linearGradient>
</defs>
</svg>
