<svg width="250" height="252" viewBox="0 0 250 252" fill="none" xmlns="http://www.w3.org/2000/svg">
<path fill-rule="evenodd" clip-rule="evenodd" d="M113.851 0.642634C89.517 4.00563 68.783 19.0046 57.868 41.1406C51.907 53.2296 50.043 62.7026 50.684 77.6406C51.439 95.2306 56.506 108.404 67.68 121.832C72.682 127.842 81.917 135.307 88.526 138.682L92.111 140.513L91.65 127.753C90.71 101.727 98.822 80.5046 116.449 62.8776C132.599 46.7266 152.789 38.3736 176.047 38.2206L188.151 38.1406L185.661 34.1406C170.918 10.4576 141.644 -3.19837 113.851 0.642634ZM165.942 51.2786C146.332 55.2606 131.366 63.6876 120.636 76.7906C115.834 82.6536 109.848 92.3856 110.593 93.1196C110.785 93.3086 113.417 93.0026 116.442 92.4386C123.884 91.0506 140.319 92.1576 149.268 94.6496C173.177 101.308 192.617 117.24 203.791 139.334C208.952 149.538 211.625 161.018 212.186 175.391C212.47 182.678 212.901 188.641 213.142 188.641C214.143 188.641 223.253 181.924 227.337 178.175C236.493 169.77 244.514 156.073 248.146 142.641C250.533 133.815 250.486 114.625 248.055 105.641C239.186 72.8606 209.649 50.2896 176.234 50.7566C171.673 50.8206 167.042 51.0556 165.942 51.2786ZM31.698 66.2816C18.484 75.2486 6.90204 91.7786 2.33004 108.198C-1.81296 123.077 -0.332967 142.943 5.98903 157.316C13.786 175.039 30.788 190.73 49.171 197.167C59.515 200.789 78.402 201.74 89.768 199.212C103.602 196.134 118.863 187.058 128.736 176.035C132.071 172.313 139.442 161.065 139.442 159.7C139.442 159.392 131.905 159.134 122.692 159.125C106.521 159.109 105.631 159 96.942 155.973C68.117 145.93 47.925 124.423 40.3 95.6406C38.573 89.1216 38.035 84.2856 37.995 74.8916C37.966 68.1556 37.717 62.6616 37.442 62.6826C37.167 62.7046 34.582 64.3236 31.698 66.2816ZM158.108 114.343C158.535 116.432 158.854 123.091 158.819 129.141C158.543 176.594 118.983 215.031 72.037 213.462C66.757 213.285 62.439 213.427 62.44 213.777C62.446 215.511 70.987 226.877 75.35 230.958C81.204 236.434 91.934 243.447 98.942 246.377C110.905 251.38 126.969 252.846 140.81 250.198C167.929 245.009 190.445 223.874 197.562 196.928C200.282 186.629 200.494 169.937 198.029 160.141C193.051 140.359 178.23 121.206 161.163 112.499L157.333 110.545L158.108 114.343Z" fill="url(#paint0_radial_9_111)"/>
<defs>
<radialGradient id="paint0_radial_9_111" cx="0" cy="0" r="1" gradientUnits="userSpaceOnUse" gradientTransform="translate(124.954 125.748) rotate(89.9921) scale(334.752 332.638)">
<stop stop-color="#2E7424"/>
<stop offset="1" stop-color="#56DA44"/>
</radialGradient>
</defs>
</svg>
