<svg width="239" height="273" viewBox="0 0 239 273" fill="none" xmlns="http://www.w3.org/2000/svg">
<path d="M83.3349 165.596C58.3205 146.016 48.0223 121.041 46 111C48.6134 121.919 69.801 137.2 80.0681 143.475C86.7884 146.864 100.136 155.555 105.736 159.477C126.871 174.279 128.448 198.227 126.27 212.661C117.31 245.418 86.135 251.097 71.6677 249.842C82.4949 247.583 92.9798 233.526 96.8688 226.78C111.429 197.412 93.9131 173.754 83.3349 165.596Z" fill="url(#paint0_linear_55_4)"/>
<path d="M154.665 164.596C179.679 145.016 189.978 120.041 192 110C189.387 120.919 168.199 136.2 157.932 142.475C151.212 145.864 137.864 154.555 132.264 158.477C111.129 173.279 109.552 197.227 111.73 211.661C120.69 244.418 151.865 250.097 166.332 248.842C155.505 246.583 145.02 232.526 141.131 225.78C126.571 196.412 144.087 172.754 154.665 164.596Z" fill="url(#paint1_linear_55_4)"/>
<circle cx="119" cy="123" r="24" fill="url(#paint2_linear_55_4)"/>
<path d="M128.546 0.584759C192.946 4.98476 228.713 51.0848 238.546 73.5848C211.346 53.9847 177.546 44.0848 164.046 41.5848C133.646 39.1848 109.379 54.2514 101.046 62.0848C85.846 76.0848 68.3794 79.2514 61.546 79.0848C49.546 77.4848 56.546 67.0848 61.546 62.0848C68.746 60.8848 82.2127 49.9181 88.046 44.5848C99.646 32.5848 92.546 30.9181 87.546 31.5848C77.146 32.7848 65.8794 38.7514 61.546 41.5848C52.746 39.9848 26.8794 74.5848 15.046 92.0848C11.7127 97.4181 4.34602 106.985 1.54602 102.585C-1.25398 98.1848 0.379358 89.4181 1.54602 85.5848C34.346 8.78476 99.8794 -3.08191 128.546 0.584759Z" fill="url(#paint3_linear_55_4)"/>
<path d="M110 272.125C45.6 267.725 9.83333 221.625 0 199.125C27.2 218.725 61 228.625 74.5 231.125C104.9 233.525 129.167 218.458 137.5 210.625C152.7 196.625 170.167 193.458 177 193.625C189 195.225 182 205.625 177 210.625C169.8 211.825 156.333 222.791 150.5 228.125C138.9 240.125 146 241.791 151 241.125C161.4 239.925 172.667 233.958 177 231.125C185.8 232.725 211.667 198.125 223.5 180.625C226.833 175.291 234.2 165.725 237 170.125C239.8 174.525 238.167 183.291 237 187.125C204.2 263.925 138.667 275.791 110 272.125Z" fill="url(#paint4_linear_55_4)"/>
<defs>
<linearGradient id="paint0_linear_55_4" x1="86.5" y1="111" x2="86.5" y2="250" gradientUnits="userSpaceOnUse">
<stop stop-color="#FFFF00"/>
<stop offset="1" stop-color="#999900"/>
</linearGradient>
<linearGradient id="paint1_linear_55_4" x1="151.5" y1="110" x2="151.5" y2="249" gradientUnits="userSpaceOnUse">
<stop stop-color="#FFFF00"/>
<stop offset="1" stop-color="#999900"/>
</linearGradient>
<linearGradient id="paint2_linear_55_4" x1="119" y1="99" x2="118.226" y2="195.774" gradientUnits="userSpaceOnUse">
<stop stop-color="#F1F101"/>
<stop offset="1" stop-color="#8B8B01"/>
</linearGradient>
<linearGradient id="paint3_linear_55_4" x1="32" y1="73" x2="308.5" y2="1.21261e-05" gradientUnits="userSpaceOnUse">
<stop stop-color="#46B036"/>
<stop offset="1" stop-color="#1D4A17"/>
</linearGradient>
<linearGradient id="paint4_linear_55_4" x1="267.5" y1="169" x2="-7.73857e-06" y2="256.5" gradientUnits="userSpaceOnUse">
<stop stop-color="#46B036"/>
<stop offset="1" stop-color="#1D4A17"/>
</linearGradient>
</defs>
</svg>
