<svg width="161" height="240" viewBox="0 0 161 240" fill="none" xmlns="http://www.w3.org/2000/svg">
<path d="M98.0633 120.942C62.5109 93.3489 47.8743 58.1502 45 44C48.7144 59.3884 78.8279 80.9232 93.4203 89.7671C102.972 94.5428 121.942 106.792 129.901 112.319C159.94 133.18 162.181 166.93 159.086 187.271C146.351 233.436 102.043 241.44 81.481 239.671C96.8694 236.487 111.771 216.677 117.299 207.17C137.993 165.78 113.098 132.439 98.0633 120.942Z" fill="url(#paint0_linear_55_2)"/>
<circle cx="139.562" cy="82.562" r="20.562" fill="url(#paint1_linear_55_2)"/>
<path d="M86.6266 90.2935C122.179 62.7006 136.816 27.5019 139.69 13.3517C135.976 28.74 105.862 50.2749 91.2697 59.1188C81.7183 63.8945 62.7482 76.1433 54.7887 81.6707C24.7495 102.531 22.5085 136.282 25.6038 156.623C38.339 202.788 82.6469 210.791 103.209 209.023C87.8206 205.839 72.9186 186.029 67.3912 176.521C46.6965 135.132 71.592 101.791 86.6266 90.2935Z" fill="url(#paint2_linear_55_2)"/>
<circle cx="20.562" cy="20.562" r="20.562" transform="matrix(-1 0 0 1 41.124 48.7498)" fill="#137042"/>
<path d="M81.9262 0L86.1754 13.0777L99.926 13.0777L88.8015 21.1601L93.0507 34.2378L81.9262 26.1553L70.8017 34.2378L75.0508 21.1601L63.9263 13.0777L77.677 13.0777L81.9262 0Z" fill="#EBEB01"/>
<defs>
<linearGradient id="paint0_linear_55_2" x1="102.562" y1="44" x2="102.562" y2="239.893" gradientUnits="userSpaceOnUse">
<stop stop-color="#FFFF00"/>
<stop offset="1" stop-color="#999900"/>
</linearGradient>
<linearGradient id="paint1_linear_55_2" x1="139.562" y1="62" x2="138.899" y2="144.911" gradientUnits="userSpaceOnUse">
<stop stop-color="#F1F101"/>
<stop offset="1" stop-color="#8B8B01"/>
</linearGradient>
<linearGradient id="paint2_linear_55_2" x1="82.1282" y1="13.3517" x2="82.1282" y2="209.245" gradientUnits="userSpaceOnUse">
<stop stop-color="#157C49"/>
<stop offset="1" stop-color="#0D502F"/>
</linearGradient>
</defs>
</svg>
